<?xml version="1.0" standalone="no"?>
<!DOCTYPE svg PUBLIC "-//W3C//DTD SVG 20010904//EN"
 "http://www.w3.org/TR/2001/REC-SVG-20010904/DTD/svg10.dtd">
<svg version="1.0" xmlns="http://www.w3.org/2000/svg"
 width="355.000000pt" height="355.000000pt" viewBox="0 0 355.000000 355.000000"
 preserveAspectRatio="xMidYMid meet">
<metadata>
Created by potrace 1.11, written by Peter Selinger 2001-2013
</metadata>
<g transform="translate(0.000000,355.000000) scale(0.100000,-0.100000)"
fill="#000000" stroke="none">
<path d="M2023 3472 c-51 -1 -93 -6 -94 -10 0 -4 -2 -23 -4 -42 -11 -112 -17
-153 -29 -220 -13 -67 -22 -105 -56 -240 -15 -60 -93 -270 -101 -270 -11 0
-84 173 -125 295 -52 157 -100 365 -103 452 -1 22 -1 22 -221 23 -169 0 -221
-3 -225 -12 -2 -7 -6 -49 -9 -93 -7 -90 -7 -95 -31 -184 -32 -126 -95 -259
-168 -356 -43 -57 -162 -169 -221 -209 -165 -109 -423 -195 -618 -205 -15 -1
-16 -21 -15 -216 1 -118 4 -215 7 -216 3 0 34 -2 70 -5 223 -16 527 -88 727
-173 l65 -28 -44 -20 c-133 -62 -350 -125 -518 -149 -80 -11 -256 -28 -282
-26 -17 1 -18 -16 -18 -224 l0 -224 54 0 c30 0 100 -9 157 -21 386 -76 662
-283 832 -624 50 -100 105 -258 115 -332 l7 -48 223 -3 222 -2 1 22 c0 13 2
32 4 43 2 11 6 46 9 78 14 143 72 379 131 532 14 39 29 78 32 88 6 18 23 24
23 8 0 -5 16 -45 36 -88 30 -63 100 -258 109 -298 1 -5 7 -28 13 -50 10 -37
42 -198 57 -287 l6 -38 223 0 222 0 1 40 c1 33 13 160 18 180 81 352 266 587
571 726 115 52 238 86 385 106 l86 11 1 214 0 213 -26 1 c-63 2 -230 22 -292
34 -167 33 -384 99 -497 150 l-58 27 84 34 c128 51 297 100 411 119 19 3 46 8
60 10 38 8 180 22 285 29 19 1 20 9 23 224 l2 222 -37 1 c-287 9 -607 149
-797 349 -169 178 -269 379 -330 660 l-5 25 -128 0 c-70 0 -170 -1 -220 -3z
m225 -905 c74 -95 230 -233 335 -295 29 -17 35 -32 15 -32 -16 0 -232 -106
-304 -149 l-51 -30 -48 42 c-27 23 -75 68 -106 99 l-57 57 58 118 c31 65 68
146 81 181 13 34 27 62 30 62 4 0 25 -24 47 -53z m-946 -75 c31 -64 79 -152
107 -194 l50 -78 -40 -47 c-23 -27 -57 -63 -75 -82 l-35 -34 -147 70 c-81 39
-174 81 -207 93 -33 13 -63 26 -68 30 -4 3 21 27 55 52 79 58 202 180 254 252
21 30 41 55 44 55 3 0 30 -53 62 -117z m497 -658 c22 -19 47 -41 57 -49 18
-13 16 -17 -28 -61 l-46 -47 -56 54 -56 54 38 43 c20 23 41 42 45 42 4 0 25
-16 46 -36z m701 -432 c41 -17 103 -40 138 -53 l62 -22 -37 -25 c-114 -76
-256 -215 -334 -325 l-48 -69 -61 126 c-33 70 -81 160 -106 202 -25 41 -44 79
-42 84 2 5 42 52 91 104 l87 95 88 -43 c48 -24 121 -57 162 -74z m-1121 33
c19 -16 58 -54 86 -83 l52 -52 -45 -88 c-25 -48 -62 -129 -82 -180 l-37 -92
-54 62 c-98 116 -214 217 -333 292 l-28 18 103 48 c57 26 140 68 184 93 89 52
71 54 154 -18z"/>
</g>
</svg>
